<svg width="70" height="70" viewBox="0 0 70 70" fill="none" xmlns="http://www.w3.org/2000/svg">
<g clip-path="url(#clip0_200_127)">
<path d="M60.0332 40.8379H59.4453V18.6211C59.4453 17.3906 58.9395 16.1875 58.0508 15.3398L43.4766 1.27148C42.6289 0.451172 41.4941 0 40.3047 0H11.2246C8.70898 0 6.6582 2.05078 6.6582 4.56641V65.4473C6.6582 67.9629 8.70898 70.0137 11.2246 70.0137H54.8926C57.4082 70.0137 59.459 67.9629 59.459 65.4473V61.5918H60.0469C61.8789 61.5918 63.3555 60.1016 63.3555 58.2832V44.1602C63.3418 42.3281 61.8516 40.8379 60.0332 40.8379ZM42.3555 5.90625L53.416 16.5703H42.3555V5.90625ZM55.3437 65.4336C55.3437 65.6797 55.1387 65.8848 54.8926 65.8848H11.2246C10.9785 65.8848 10.7734 65.6797 10.7734 65.4336V4.56641C10.7734 4.32031 10.9785 4.11523 11.2246 4.11523H38.2539V18.6211C38.2539 19.7559 39.1699 20.6719 40.3047 20.6719H55.3437V40.8516H33.7422C31.9102 40.8516 30.4336 42.3418 30.4336 44.1602V58.2695C30.4336 60.1016 31.9238 61.5781 33.7422 61.5781H55.3437V65.4336ZM59.2402 57.4766H34.5352V44.9395H59.2402V57.4766Z" fill="#5B0505"/>
<path d="M36.3125 55.5352C36.2578 55.4805 36.2305 55.4121 36.2305 55.3301V47.6465C36.2305 47.5645 36.2578 47.4824 36.3125 47.4277C36.3672 47.373 36.4355 47.3457 36.5176 47.3457H39.6758C40.6328 47.3457 41.3711 47.5645 41.918 48.0156C42.4648 48.4668 42.7383 49.123 42.7383 49.9707C42.7383 50.8184 42.4648 51.4609 41.918 51.8984C41.3711 52.3359 40.6328 52.5547 39.6758 52.5547H37.9395V55.3164C37.9395 55.3984 37.9121 55.4668 37.8574 55.5215C37.8027 55.5762 37.7344 55.6035 37.6387 55.6035H36.5039C36.4355 55.6172 36.3672 55.5898 36.3125 55.5352ZM39.6211 51.2559C40.0723 51.2559 40.4277 51.1465 40.6602 50.9277C40.9062 50.709 41.0156 50.3945 41.0156 49.9844C41.0156 49.5742 40.9062 49.2598 40.6738 49.0273C40.4414 48.7949 40.0859 48.6855 39.6211 48.6855H37.9258V51.2559H39.6211Z" fill="#5B0505"/>
<path d="M44.0918 55.5352C44.0371 55.4805 44.0098 55.4121 44.0098 55.3301V47.6465C44.0098 47.5645 44.0371 47.4824 44.0918 47.4277C44.1465 47.373 44.2148 47.3457 44.2969 47.3457H47.1816C49.5059 47.3457 50.6816 48.4121 50.7363 50.5586C50.75 51.0098 50.7637 51.3242 50.7637 51.4746C50.7637 51.625 50.75 51.9258 50.7363 52.377C50.709 53.4844 50.4082 54.291 49.8477 54.8105C49.2871 55.3301 48.4121 55.5898 47.25 55.5898H44.2969C44.2148 55.6172 44.1465 55.5898 44.0918 55.5352ZM47.1816 54.25C47.8379 54.25 48.3027 54.0996 48.6035 53.8125C48.8906 53.5254 49.041 53.0332 49.0684 52.3633C49.082 51.8848 49.0957 51.5977 49.0957 51.4746C49.0957 51.3516 49.082 51.0645 49.0684 50.5996C49.0547 49.957 48.8906 49.4785 48.5898 49.1777C48.2891 48.877 47.7969 48.7266 47.1406 48.7266H45.7051V54.25H47.1816Z" fill="#5B0505"/>
<path d="M52.3906 55.5352C52.3359 55.4805 52.3086 55.4121 52.3086 55.3301V47.6465C52.3086 47.5645 52.3359 47.4824 52.3906 47.4277C52.4453 47.373 52.5137 47.3457 52.5957 47.3457H57.7227C57.8047 47.3457 57.873 47.373 57.9414 47.4277C57.9961 47.4824 58.0234 47.5508 58.0234 47.6465V48.4941C58.0234 48.5762 57.9961 48.6445 57.9414 48.6992C57.8867 48.7539 57.8184 48.7812 57.7227 48.7812H53.9492V50.9961H57.4902C57.5723 50.9961 57.6543 51.0234 57.709 51.0781C57.7637 51.1328 57.791 51.2012 57.791 51.2832V52.1309C57.791 52.2129 57.7637 52.2812 57.709 52.3359C57.6543 52.3906 57.5859 52.418 57.4902 52.418H53.9492V55.3301C53.9492 55.4121 53.9219 55.4805 53.8672 55.5352C53.8125 55.5898 53.7441 55.6172 53.6484 55.6172H52.582C52.5137 55.6172 52.4453 55.5898 52.3906 55.5352Z" fill="#5B0505"/>
</g>
<defs>
<clipPath id="clip0_200_127">
<rect width="70" height="70" fill="white"/>
</clipPath>
</defs>
</svg>
