<svg width="27" height="31" viewBox="0 0 27 31" fill="none" xmlns="http://www.w3.org/2000/svg">
<path d="M22.9787 3.92883C20.4363 1.3953 17.056 0 13.4605 0C9.86505 0 6.48477 1.3953 3.94234 3.92883C1.40008 6.46241 0 9.83094 0 13.414C0 16.9971 1.40008 20.3657 3.9424 22.8993L11.094 30.026C11.7242 30.6541 12.5646 31 13.4605 31C14.3564 31 15.1969 30.6541 15.8271 30.026L22.9787 22.8993C25.521 20.3657 26.9211 16.9971 26.9211 13.414C26.9211 9.83094 25.521 6.46235 22.9787 3.92883ZM21.6898 21.6149L14.5383 28.7417C14.2523 29.0267 13.8695 29.1836 13.4605 29.1836C13.0516 29.1836 12.6689 29.0267 12.3829 28.7417L5.23124 21.6149C0.693723 17.0929 0.693723 9.73515 5.23124 5.21315C7.4293 3.02274 10.3519 1.81641 13.4605 1.81641C16.5692 1.81641 19.4918 3.02274 21.6898 5.21321C26.2273 9.73515 26.2273 17.0929 21.6898 21.6149Z" fill="#263141"/>
<path d="M13.4608 7.34204C10.537 7.34204 8.15832 9.9038 8.1582 13.0527C8.15832 16.2013 10.5371 18.763 13.4609 18.7631C16.3848 18.7631 18.7635 16.2014 18.7635 13.0527C18.7634 9.90411 16.3846 7.34235 13.4608 7.34204ZM13.461 16.9102C11.4859 16.9101 9.87885 15.1796 9.87879 13.0527C9.87885 10.9256 11.4858 9.19495 13.4607 9.19495C15.4359 9.19513 17.0429 10.9257 17.0429 13.0528C17.0429 15.1797 15.4361 16.9102 13.461 16.9102Z" fill="#263141"/>
</svg>
