<svg width="208" height="207" viewBox="0 0 208 207" fill="none" xmlns="http://www.w3.org/2000/svg">
<path d="M207.026 89.2777C207.577 93.2689 207.9 97.3327 207.98 101.456L202.981 101.553C202.994 102.2 203 102.849 203 103.5C203 104.151 202.994 104.8 202.981 105.447L207.98 105.544C207.9 109.667 207.577 113.731 207.026 117.722L202.073 117.038C201.896 118.323 201.694 119.599 201.467 120.867L206.389 121.747C205.666 125.791 204.707 129.754 203.527 133.621L198.745 132.162C198.367 133.4 197.965 134.629 197.54 135.846L202.26 137.495C200.91 141.361 199.335 145.124 197.552 148.766L193.061 146.568C192.493 147.73 191.902 148.88 191.289 150.016L195.689 152.39C193.749 155.986 191.601 159.455 189.262 162.78L185.173 159.904C184.429 160.962 183.664 162.005 182.88 163.032L186.854 166.066C184.379 169.307 181.716 172.398 178.882 175.324L175.291 171.845C174.391 172.774 173.473 173.685 172.538 174.578L175.991 178.195C173.046 181.006 169.936 183.647 166.676 186.1L163.669 182.106C162.637 182.883 161.589 183.64 160.525 184.377L163.374 188.486C160.034 190.801 156.552 192.927 152.942 194.846L150.595 190.431C149.455 191.038 148.301 191.622 147.135 192.185L149.307 196.688C145.656 198.45 141.886 200.005 138.012 201.338L136.385 196.611C135.165 197.031 133.934 197.427 132.693 197.801L134.133 202.589C130.263 203.753 126.297 204.699 122.25 205.412L121.382 200.488C120.113 200.711 118.835 200.911 117.549 201.086L118.224 206.04C114.232 206.583 110.167 206.901 106.044 206.98L105.949 201.981C105.301 201.994 104.651 202 104 202C103.349 202 102.699 201.994 102.051 201.981L101.956 206.98C97.8326 206.901 93.7683 206.583 89.7762 206.04L90.4505 201.086C89.1648 200.911 87.887 200.711 86.6176 200.488L85.7502 205.412C81.7033 204.699 77.7373 203.753 73.8665 202.589L75.3067 197.801C74.0656 197.427 72.8349 197.031 71.615 196.611L69.9875 201.338C66.1136 200.005 62.3435 198.45 58.6925 196.688L60.865 192.185C59.6988 191.622 58.5453 191.038 57.4052 190.431L55.0576 194.846C51.4481 192.927 47.9656 190.801 44.626 188.486L47.4746 184.377C46.4112 183.64 45.3631 182.883 44.3307 182.106L41.3238 186.1C38.0638 183.647 34.9535 181.006 32.0091 178.195L35.462 174.578C34.5266 173.685 33.6088 172.774 32.7091 171.845L29.1178 175.324C26.2837 172.398 23.6212 169.307 21.1462 166.066L25.1201 163.032C24.3358 162.005 23.5714 160.962 22.8274 159.904L18.7376 162.78C16.3986 159.455 14.2511 155.986 12.311 152.39L16.7114 150.016C16.0985 148.88 15.5073 147.73 14.9385 146.568L10.4476 148.766C8.66473 145.124 7.09032 141.361 5.73984 137.495L10.4602 135.846C10.035 134.629 9.63307 133.4 9.25507 132.162L4.4728 133.621C3.29268 129.754 2.33389 125.791 1.61108 121.747L6.53308 120.867C6.30646 119.599 6.1042 118.323 5.92682 117.038L0.97382 117.722C0.422651 113.731 0.100147 109.667 0.0198839 105.544L5.01894 105.447C5.00633 104.8 5 104.151 5 103.5C5 102.849 5.00633 102.2 5.01894 101.553L0.0198841 101.456C0.100147 97.3327 0.422652 93.2689 0.973821 89.2776L5.92682 89.9616C6.1042 88.6771 6.30646 87.4007 6.53309 86.1327L1.61108 85.253C2.33389 81.2089 3.29269 77.246 4.47281 73.379L9.25507 74.8384C9.63308 73.5998 10.035 72.3714 10.4602 71.154L5.73984 69.5053C7.09032 65.6387 8.66473 61.8765 10.4476 58.2339L14.9385 60.432C15.5073 59.2699 16.0985 58.1205 16.7114 56.9844L12.311 54.6103C14.2511 51.0142 16.3986 47.5454 18.7376 44.2197L22.8274 47.0961C23.5714 46.0382 24.3358 44.9955 25.1201 43.9684L21.1462 40.9339C23.6212 37.6929 26.2837 34.6015 29.1178 31.6758L32.7091 35.1547C33.6088 34.2259 34.5266 33.3147 35.462 32.4216L32.0091 28.8053C34.9535 25.9939 38.0638 23.3534 41.3238 20.8996L44.3307 24.8944C45.3631 24.1173 46.4113 23.3599 47.4746 22.6228L44.626 18.5136C47.9656 16.1985 51.4481 14.0734 55.0576 12.154L57.4052 16.5686C58.5454 15.9623 59.6988 15.3776 60.8651 14.815L58.6926 10.3116C62.3435 8.55034 66.1136 6.9953 69.9875 5.6617L71.615 10.3894C72.8349 9.96945 74.0657 9.57257 75.3067 9.19928L73.8665 4.41119C77.7373 3.24692 81.7033 2.30114 85.7502 1.58826L86.6176 6.51244C87.887 6.28884 89.1648 6.08929 90.4505 5.91428L89.7762 0.959962C93.7683 0.416607 97.8326 0.0987128 101.956 0.0195991L102.051 5.01868C102.699 5.00625 103.349 5 104 5C104.651 5 105.301 5.00625 105.949 5.01868L106.044 0.0195993C110.167 0.0987132 114.232 0.416607 118.224 0.959962L117.549 5.91428C118.835 6.08929 120.113 6.28884 121.382 6.51244L122.25 1.58826C126.297 2.30114 130.263 3.24693 134.133 4.41119L132.693 9.19929C133.934 9.57257 135.165 9.96946 136.385 10.3894L138.013 5.66171C141.886 6.9953 145.657 8.55035 149.307 10.3116L147.135 14.815C148.301 15.3776 149.455 15.9623 150.595 16.5686L152.942 12.154C156.552 14.0734 160.034 16.1985 163.374 18.5136L160.525 22.6228C161.589 23.36 162.637 24.1173 163.669 24.8944L166.676 20.8996C169.936 23.3534 173.047 25.994 175.991 28.8053L172.538 32.4216C173.473 33.3147 174.391 34.2259 175.291 35.1547L178.882 31.6758C181.716 34.6015 184.379 37.6929 186.854 40.9339L182.88 43.9685C183.664 44.9955 184.429 46.0382 185.173 47.0961L189.262 44.2197C191.601 47.5454 193.749 51.0142 195.689 54.6103L191.289 56.9844C191.902 58.1205 192.493 59.2699 193.061 60.432L197.552 58.2339C199.335 61.8765 200.91 65.6387 202.26 69.5053L197.54 71.154C197.965 72.3714 198.367 73.5998 198.745 74.8384L203.527 73.379C204.707 77.246 205.666 81.2089 206.389 85.253L201.467 86.1327C201.694 87.4007 201.896 88.6771 202.073 89.9616L207.026 89.2777Z" stroke="white" stroke-width="10" stroke-dasharray="4 12"/>
<path d="M149.753 88.9023H58.8598C57.7077 88.9023 56.7734 89.8363 56.7734 90.9887C56.7734 92.1412 57.7074 93.0752 58.8598 93.0752H149.753C150.905 93.0752 151.839 92.1412 151.839 90.9887C151.839 89.8363 150.905 88.9023 149.753 88.9023V88.9023Z" fill="white"/>
<path d="M117.381 99.427H58.8598C57.7077 99.427 56.7734 100.361 56.7734 101.513C56.7734 102.666 57.7074 103.6 58.8598 103.6H117.381C118.533 103.6 119.467 102.666 119.467 101.513C119.467 100.361 118.533 99.427 117.381 99.427V99.427Z" fill="white"/>
<path d="M110.704 114.123C111.856 114.123 112.791 113.189 112.791 112.037C112.791 110.884 111.857 109.95 110.704 109.95H58.8598C57.7077 109.95 56.7734 110.884 56.7734 112.037C56.7734 113.189 57.7074 114.123 58.8598 114.123H110.704Z" fill="white"/>
<path d="M119.518 78.5184C121.997 78.5184 124.013 76.5018 124.013 74.0235V70.3554C124.013 67.8768 121.997 65.8605 119.518 65.8605H89.0946C86.616 65.8605 84.5996 67.8771 84.5996 70.3554V74.0235C84.5996 76.5021 86.616 78.5184 89.0946 78.5184H119.518ZM88.7724 74.0235V70.3554C88.7724 70.1775 88.917 70.033 89.0949 70.033H119.519C119.696 70.033 119.841 70.1775 119.841 70.3554V74.0235C119.841 74.2014 119.697 74.3459 119.519 74.3459H89.0946C88.917 74.3459 88.7724 74.2014 88.7724 74.0235V74.0235Z" fill="white"/>
<path d="M111.701 130.212H59.2688C57.9351 124.779 53.7695 120.54 48.3623 119.111V99.6661C48.3623 98.5137 47.4283 97.5797 46.2759 97.5797C45.1234 97.5797 44.1895 98.5137 44.1895 99.6661V119.181C44.1895 121.045 45.437 122.668 47.2226 123.126C51.2083 124.15 54.2779 127.274 55.2335 131.278C55.6699 133.107 57.2999 134.384 59.1973 134.384H111.7C112.853 134.384 113.787 133.45 113.787 132.298C113.787 131.146 112.853 130.212 111.701 130.212V130.212Z" fill="white"/>
<path d="M161.388 66.4551C157.403 65.4311 154.333 62.3076 153.378 58.3036C152.941 56.4743 151.311 55.197 149.414 55.197H59.197C57.2997 55.197 55.6697 56.4743 55.2335 58.3033C54.2779 62.3074 51.2083 65.4308 47.2232 66.4549C45.437 66.9135 44.1895 68.5357 44.1895 70.4003V89.912C44.1895 91.0645 45.1234 91.9984 46.2759 91.9984C47.4283 91.9984 48.3623 91.0645 48.3623 89.912V70.4704C53.769 69.0419 57.9348 64.8024 59.2688 59.3698H149.343C150.677 64.8021 154.842 69.0419 160.249 70.4701V107.517C160.249 108.669 161.183 109.603 162.336 109.603C163.488 109.603 164.422 108.669 164.422 107.517V70.4003C164.422 68.536 163.174 66.9135 161.388 66.4551Z" fill="white"/>
<path d="M165.853 44.4146H42.76C37.4598 44.4146 33.1475 48.7269 33.1475 54.0274V135.554C33.1475 140.854 37.4598 145.167 42.76 145.167H126.905L123.483 154.117C122.56 156.532 124.768 158.976 127.265 158.303L131.111 157.265L133.287 160.607C134.699 162.776 137.974 162.424 138.896 160.01L141.814 152.376L144.733 160.01C145.657 162.427 148.932 162.773 150.342 160.607L152.519 157.265L156.364 158.303C158.859 158.977 161.069 156.532 160.146 154.117L156.724 145.167H165.853C171.153 145.167 175.465 140.854 175.465 135.554V54.0274C175.465 48.7269 171.153 44.4146 165.853 44.4146V44.4146ZM123.919 120.885C122.878 119.992 123.438 118.307 124.792 118.198C128.278 117.916 130.69 114.591 129.881 111.192C129.567 109.872 130.996 108.817 132.167 109.532C135.153 111.353 139.059 110.08 140.402 106.856C140.925 105.6 142.701 105.593 143.227 106.856C144.572 110.084 148.481 111.352 151.462 109.532C152.624 108.823 154.065 109.861 153.748 111.192C152.938 114.595 155.355 117.916 158.838 118.198C160.197 118.307 160.747 119.996 159.711 120.885C157.055 123.161 157.059 127.269 159.711 129.543C160.751 130.435 160.191 132.121 158.837 132.23C155.351 132.512 152.939 135.837 153.748 139.236C154.064 140.563 152.628 141.607 151.462 140.896C148.477 139.075 144.57 140.347 143.228 143.572C142.706 144.824 140.929 144.838 140.402 143.572C139.059 140.346 135.149 139.077 132.167 140.896C131.002 141.606 129.565 140.564 129.881 139.236C130.691 135.833 128.274 132.512 124.792 132.23C123.432 132.12 122.882 130.432 123.919 129.543C126.574 127.267 126.57 123.158 123.919 120.885V120.885ZM135.704 156.673L134.208 154.374C133.457 153.221 132.06 152.688 130.731 153.045L128.088 153.759L131.319 145.307C132.354 145.315 133.394 145.036 134.341 144.458C135.141 143.97 136.189 144.309 136.55 145.177C137.063 146.408 137.938 147.374 139.029 147.978L135.704 156.673ZM152.898 153.045C151.569 152.687 150.173 153.221 149.422 154.374L147.925 156.673L144.6 147.978C145.691 147.374 146.566 146.408 147.079 145.177C147.439 144.312 148.485 143.968 149.289 144.459C150.236 145.036 151.276 145.315 152.31 145.307L155.542 153.759L152.898 153.045ZM171.293 135.554C171.293 138.553 168.852 140.994 165.853 140.994H157.8C158.016 140.127 158.029 139.199 157.807 138.27C157.666 137.674 157.904 137.228 158.058 137.016C158.213 136.803 158.563 136.439 159.173 136.389C164.226 135.982 166.28 129.679 162.427 126.376C161.714 125.765 161.714 124.664 162.427 124.052C166.274 120.753 164.232 114.447 159.173 114.039C158.237 113.963 157.59 113.072 157.807 112.158C158.981 107.228 153.622 103.326 149.289 105.97C148.488 106.459 147.44 106.119 147.079 105.252C147.079 105.252 147.079 105.252 147.079 105.252C145.13 100.572 138.502 100.566 136.55 105.252C136.189 106.117 135.142 106.459 134.34 105.97C130.01 103.327 124.647 107.225 125.821 112.158C126.039 113.071 125.393 113.963 124.456 114.039C119.403 114.446 117.349 120.749 121.202 124.052C121.915 124.663 121.915 125.764 121.202 126.376C117.354 129.676 119.397 135.982 124.456 136.389C125.391 136.465 126.039 137.355 125.822 138.27C125.6 139.199 125.613 140.127 125.829 140.994H42.76C39.7605 140.994 37.32 138.553 37.32 135.554V54.0274C37.32 51.0279 39.7605 48.5874 42.76 48.5874H165.853C168.852 48.5874 171.293 51.0279 171.293 54.0274V135.554H171.293Z" fill="white"/>
<path d="M141.815 137.428C148.55 137.428 154.03 131.949 154.03 125.214C154.03 118.479 148.55 113 141.815 113C135.08 113 129.601 118.479 129.601 125.214C129.601 131.949 135.08 137.428 141.815 137.428ZM141.815 117.172C146.249 117.172 149.857 120.78 149.857 125.214C149.857 129.648 146.249 133.256 141.815 133.256C137.381 133.256 133.773 129.648 133.773 125.214C133.773 120.779 137.381 117.172 141.815 117.172Z" fill="white"/>
</svg>
